<?xml version="1.0" encoding="utf-8"?>
<!-- Generator: Adobe Illustrator 19.2.0, SVG Export Plug-In . SVG Version: 6.00 Build 0)  -->
<svg version="1.1" id="ARWORK" xmlns="http://www.w3.org/2000/svg" xmlns:xlink="http://www.w3.org/1999/xlink" x="0px" y="0px"
	 viewBox="0 0 125.6 34.3" style="enable-background:new 0 0 125.6 34.3;" xml:space="preserve">
<path d="M18.9,28.9v4.9c-1.6,0.4-3.1,0.6-4.7,0.6C11.6,34.5,9,33.6,7,32c-1.7-1.5-2.6-3.9-2.6-7V11.9H0V7h4.3V0h5.8v7h8v4.9h-8v12.6
	c-0.1,1.3,0.4,2.7,1.3,3.6c1.2,0.8,2.6,1.1,4,1C16.6,29.1,17.8,29,18.9,28.9z"/>
<path d="M47,22.5c0.1,3.2-1.1,6.3-3.3,8.6c-2.2,2.2-5.2,3.3-8.3,3.2c-6.2,0.3-11.4-4.6-11.7-10.8c0-0.4,0-0.7,0-1.1V7h5.7v15.9
	c-0.1,1.7,0.5,3.3,1.7,4.4c1.2,1.1,2.7,1.7,4.3,1.6c1.6,0,3.1-0.6,4.2-1.7c1.2-1.2,1.8-2.8,1.7-4.4V7H47C47,7,47,22.5,47,22.5z"/>
<path d="M58.4,33.7h-5.7V7h5.7V33.7z M66.6,7.4c1.3,1.4,1.3,3.5,0,4.9c-1.3,1.3-3.5,1.3-4.9,0c-1.3-1.4-1.3-3.5,0-4.9
	C63.1,6.1,65.3,6.1,66.6,7.4C66.6,7.4,66.6,7.4,66.6,7.4z"/>
<path d="M93.4,10.4c5.5,5.4,5.6,14.2,0.2,19.7c-0.1,0.1-0.1,0.1-0.2,0.2c-5.6,5.4-14.5,5.4-20.1,0c-2.7-2.6-4.2-6.2-4.1-9.9
	c-0.1-3.7,1.4-7.3,4.1-9.9c2.6-2.6,6.3-4.1,10-4C87.1,6.4,90.7,7.8,93.4,10.4z M77.4,14.1c-3.1,3.5-3.1,8.9,0,12.4
	c1.5,1.6,3.7,2.5,5.9,2.4c2.2,0,4.4-0.9,5.9-2.5c1.6-1.6,2.5-3.8,2.4-6.1c0.1-2.3-0.8-4.6-2.4-6.2c-3.1-3.3-8.3-3.4-11.6-0.3
	C77.7,14,77.6,14.1,77.4,14.1L77.4,14.1z"/>
<path d="M122.9,9.3c1.8,2.1,2.8,4.9,2.7,7.7v16.7h-5.7v-16c0.1-1.6-0.5-3.3-1.6-4.5c-1.1-1.2-2.6-1.8-4.2-1.7
	c-1.6-0.1-3.2,0.6-4.4,1.7c-1.2,1.2-1.8,2.8-1.7,4.5v16h-5.7V7h5.3v2.7c2.1-2.2,5-3.4,8-3.3C118.3,6.2,121,7.3,122.9,9.3z"/>
</svg>
